<?xml version="1.0" encoding="utf-8"?>
<!-- Generator: Adobe Illustrator 24.0.0, SVG Export Plug-In . SVG Version: 6.00 Build 0)  -->
<svg version="1.1" xmlns="http://www.w3.org/2000/svg" xmlns:xlink="http://www.w3.org/1999/xlink" x="0px" y="0px"
	 viewBox="0 0 612 792" style="enable-background:new 0 0 612 792;" xml:space="preserve">
<style type="text/css">
	.st0{fill:#D03544;}
	.st1{fill:none;}
	.st2{fill:#E8DADA;}
	.st3{font-family:'Lato-Bold';}
	.st4{font-size:94px;}
	.st5{fill:#FFFFFF;}
	.st6{fill:#F0C52F;}
	.st7{fill:#894625;}
	.st8{opacity:0.59;fill:#894625;}
	.st9{fill:#BC860E;}
	.st10{fill:#429B09;}
</style>
<g id="Layer_1">
</g>
<g id="Layer_2">
</g>
<g id="Layer_3">
</g>
<g id="Layer_4">
</g>
<g id="Layer_5">
</g>
<g id="Layer_6">
</g>
<g id="Layer_8">
</g>
<g id="Layer_7">
</g>
<g id="Layer_9">
</g>
<g id="Layer_10">
	<g>
		<path class="st0" d="M379.17,437c0,0-1.53,34.72-59.23,20.94c0,0-25.53,14.81-54.13,0c0,0-40.34,21.45-57.19-20.94
			c0,0-95.49-155.74-4.09-200.68c0,0,20.43-18.89,81.19,10.72c0,0,14.81,4.09,34.72-10.21c0,0,79.66-34.72,101.11,52.09
			C421.55,288.91,412.36,453.85,379.17,437z"/>
		<rect x="66.84" y="480.57" class="st1" width="569" height="241.32"/>
		<text transform="matrix(1 0 0 1 66.8404 550.4103)" class="st2 st3 st4">Weight App</text>
		
			<ellipse transform="matrix(0.3193 -0.9477 0.9477 0.3193 -106.058 380.1089)" class="st5" cx="211.56" cy="263.88" rx="22.79" ry="21.36"/>
		<circle class="st5" cx="204.15" cy="301.3" r="9.83"/>
		<path class="st1" d="M309.56,252.66c0,0,39.48-45.96,87.48-8.17c0,0,33.7,34.66,20.94,51.54c0,0-74.04,60.29-122.55,69.99
			c0-2.55-44.94-14.81-44.94-14.81s150.13-29.62,133.79-83.74C384.28,267.47,386.51,232.74,309.56,252.66z"/>
		<path class="st6" d="M443.51,224.57c0,0,21.96,98.81-167.23,144.77c0,0-87.32,22.21-132.51-14.55c0,0,29.62,79.66,60.38,79.66
			c0,0,51.72,13.79,89.88,6.89c0,0,171.44-49.79,165.31-123.32C463.17,318.02,443.51,224.57,443.51,224.57z"/>
		
			<rect x="179" y="403.22" transform="matrix(0.8935 -0.4491 0.4491 0.8935 -165.69 124.7661)" class="st7" width="2.4" height="16.96"/>
		
			<rect x="185.05" y="401.93" transform="matrix(0.8935 -0.4491 0.4491 0.8935 -165.6319 127.6221)" class="st7" width="2.4" height="22.17"/>
		
			<rect x="193.01" y="404.44" transform="matrix(0.8935 -0.4491 0.4491 0.8935 -166.3427 131.5667)" class="st7" width="2.4" height="24.08"/>
		
			<rect x="201.84" y="406.22" transform="matrix(0.8935 -0.4491 0.4491 0.8935 -166.2014 135.7247)" class="st7" width="2.4" height="24.08"/>
		
			<rect x="222.4" y="409.41" transform="matrix(0.8935 -0.4491 0.4491 0.8935 -165.4456 145.2942)" class="st7" width="2.4" height="24.08"/>
		
			<rect x="233.57" y="409.41" transform="matrix(0.8935 -0.4491 0.4491 0.8935 -164.256 150.3104)" class="st7" width="2.4" height="24.08"/>
		
			<rect x="245.76" y="408.26" transform="matrix(0.8935 -0.4491 0.4491 0.8935 -162.4417 155.6628)" class="st7" width="2.4" height="24.08"/>
		
			<rect x="258.44" y="407.23" transform="matrix(0.8935 -0.4491 0.4491 0.8935 -160.599 161.3574)" class="st7" width="2.9" height="24.08"/>
		
			<rect x="285.95" y="402.38" transform="matrix(0.8935 -0.4491 0.4491 0.8935 -155.4907 173.1948)" class="st7" width="2.9" height="24.08"/>
		
			<rect x="300.12" y="398.23" transform="matrix(0.8935 -0.4491 0.4491 0.8935 -152.1185 179.1162)" class="st7" width="2.9" height="24.08"/>
		
			<rect x="314.82" y="394.78" transform="matrix(0.8935 -0.4491 0.4491 0.8935 -149.0054 185.3489)" class="st7" width="2.9" height="24.08"/>
		
			<rect x="329.62" y="389.74" transform="matrix(0.8935 -0.4491 0.4491 0.8935 -145.1639 191.4618)" class="st7" width="2.9" height="24.08"/>
		
			<rect x="343.04" y="374.31" transform="matrix(0.9237 -0.383 0.383 0.9237 -123.7069 161.7946)" class="st7" width="2.9" height="34.53"/>
		
			<rect x="358.34" y="378.69" transform="matrix(0.9237 -0.383 0.383 0.9237 -121.8287 167.516)" class="st7" width="2.9" height="22.07"/>
		
			<rect x="372.58" y="371.32" transform="matrix(0.9463 -0.3233 0.3233 0.9463 -103.5849 141.5331)" class="st7" width="3.3" height="22.49"/>
		
			<rect x="397.86" y="355.49" transform="matrix(0.9463 -0.3233 0.3233 0.9463 -97.1097 148.8549)" class="st7" width="3.3" height="22.49"/>
		
			<rect x="385.22" y="362.49" transform="matrix(0.9463 -0.3233 0.3233 0.9463 -100.0519 145.1449)" class="st7" width="3.3" height="22.49"/>
		
			<rect x="407.69" y="336.33" transform="matrix(0.9711 -0.2388 0.2388 0.9711 -72.6819 108.007)" class="st7" width="3.3" height="35.19"/>
		
			<rect x="418.8" y="338.48" transform="matrix(0.9711 -0.2388 0.2388 0.9711 -71.6285 110.5702)" class="st7" width="3.3" height="24.76"/>
		
			<rect x="427.22" y="330.69" transform="matrix(0.9711 -0.2388 0.2388 0.9711 -69.5248 112.3572)" class="st7" width="3.3" height="24.76"/>
		
			<rect x="434.63" y="321.75" transform="matrix(0.9711 -0.2388 0.2388 0.9711 -67.1763 113.8669)" class="st7" width="3.3" height="24.76"/>
		
			<rect x="440.63" y="314.99" transform="matrix(0.9711 -0.2388 0.2388 0.9711 -65.3867 115.1041)" class="st7" width="3.3" height="24.76"/>
		
			<rect x="444.46" y="295.71" transform="matrix(0.9711 -0.2388 0.2388 0.9711 -61.8778 115.6084)" class="st7" width="3.3" height="34.87"/>
		
			<rect x="450.26" y="298.98" transform="matrix(0.9711 -0.2388 0.2388 0.9711 -61.1928 116.9311)" class="st7" width="3.3" height="24"/>
		
			<rect x="453.62" y="294.88" transform="matrix(0.9711 -0.2388 0.2388 0.9711 -59.6051 117.5518)" class="st7" width="3.3" height="19.71"/>
		
			<rect x="270.16" y="395.73" transform="matrix(0.8935 -0.4491 0.4491 0.8935 -156.9036 166.0426)" class="st7" width="2.9" height="36.17"/>
		
			<rect x="208.53" y="397.57" transform="matrix(0.8935 -0.4491 0.4491 0.8935 -163.9814 138.368)" class="st7" width="2.4" height="34.66"/>
		<path class="st6" d="M289.63,363.08c0,0-90.21-11.35-135.14-87.27c1.02,1.02-13.96-39.49-10.72-53.11
			c0,0-21.28,81.02-16.85,101.79c1.02,1.02,15.09,31.26,16.85,33.02C143.77,357.51,219.84,395.54,289.63,363.08z"/>
		
			<rect x="175.46" y="334.95" transform="matrix(0.9698 0.2439 -0.2439 0.9698 91.2994 -32.7612)" class="st7" width="4.94" height="34.63"/>
		
			<rect x="155.64" y="331.43" transform="matrix(0.9698 0.2439 -0.2439 0.9698 88.5707 -28.1893)" class="st7" width="4.94" height="24.21"/>
		
			<rect x="148.29" y="323.09" transform="matrix(0.9698 0.2439 -0.2439 0.9698 86.2836 -26.3922)" class="st7" width="2.84" height="24.21"/>
		
			<rect x="142.84" y="316.11" transform="matrix(0.9698 0.2439 -0.2439 0.9698 84.4168 -25.2744)" class="st7" width="2.84" height="24.21"/>
		
			<rect x="139.18" y="297.01" transform="matrix(0.9698 0.2439 -0.2439 0.9698 80.7878 -24.722)" class="st7" width="2.07" height="33.66"/>
		
			<rect x="134.71" y="301.11" transform="matrix(0.9848 0.1734 -0.1734 0.9848 56.116 -18.8182)" class="st7" width="2.07" height="21.19"/>
		
			<rect x="130.75" y="294.68" transform="matrix(0.9848 0.1734 -0.1734 0.9848 54.9417 -18.2292)" class="st8" width="2.07" height="21.19"/>
		
			<rect x="163.98" y="338.49" transform="matrix(0.9698 0.2439 -0.2439 0.9698 90.5456 -30.0103)" class="st7" width="4.94" height="24.21"/>
		
			<rect x="198.98" y="360.49" transform="matrix(0.9698 0.2439 -0.2439 0.9698 95.5562 -38.0592)" class="st7" width="4.94" height="12.63"/>
		
			<rect x="213.74" y="368.11" transform="matrix(0.9972 0.0743 -0.0743 0.9972 28.19 -15.0357)" class="st7" width="4.94" height="6.62"/>
		<path class="st9" d="M265.47,357.51l23.78,8.51c0,0-106.51,26.87-145.48-12.1C143.77,354.79,256.1,369.59,265.47,357.51z"/>
		<polygon class="st9" points="246.96,373.25 275.77,369.47 294.28,364.64 297.47,363.73 265.47,357.51 		"/>
		<path class="st9" d="M230.19,371.49c0,0,18.34,6.53,45.36-2.41c8.12-2.69-14.34,1.62-14.34,1.62"/>
		<path class="st9" d="M161.89,260.57c0,0,14.04-45.45,78.38-42.89l34.21-13.53c0,0-73.36-21.45-108.04-9.96
			C165.7,194.94,132.79,207.98,161.89,260.57z"/>
		<polygon class="st9" points="283.17,231.98 286.23,212.32 259.43,222.15 		"/>
		<path class="st9" d="M306,229.97c0,0,79.13-42.5,119.89,30.6c0,0,36.1-59.88-16.55-69.77c0,0-68.98,1.6-92.73,13.09L306,229.97z"
			/>
		<path class="st7" d="M297.47,239.89c0,0,8.93-50.3,53.87-75.57l-17.87-12c0,0-39.57,22.21-45.7,85.53L297.47,239.89z"/>
		<path class="st10" d="M289.63,193.94c0,0-25.87-15.57-27.4-24.26c0.77-0.77,24.67,17.36,27.4,17.36c1.96,0,2.73-50.81-50.12-42.89
			C240.28,144.91,225.88,197.77,289.63,193.94z"/>
	</g>
</g>
</svg>
