<svg id="Layer_1" data-name="Layer 1" xmlns="http://www.w3.org/2000/svg" viewBox="0 0 750.51 763.15"><defs><style>.cls-1{fill:#d03544;}.cls-2{fill:none;}.cls-3{fill:#fff;}.cls-4{fill:#f0c52f;}.cls-5,.cls-6{fill:#894625;}.cls-6{opacity:0.59;isolation:isolate;}.cls-7{fill:#bc860e;}.cls-8{fill:#429b09;}</style></defs><title>LOGOO</title><path class="cls-1" d="M415.37,549.38s-2,45.8-78.12,27.62c0,0-33.68,19.54-71.4,0,0,0-53.21,28.3-75.43-27.62,0,0-126-205.42-5.4-264.7,0,0,26.95-24.91,107.09,14.14,0,0,19.54,5.4,45.8-13.46,0,0,105.07-45.8,133.36,68.7C471.27,354.05,459.15,571.61,415.37,549.38Z" transform="translate(-3.41 -162.01)"/><rect class="cls-2" y="444.85" width="750.51" height="318.3"/><ellipse class="cls-3" cx="194.31" cy="321.02" rx="30.06" ry="28.18" transform="translate(-175.36 240.66) rotate(-71.38)"/><circle class="cls-3" cx="181.11" cy="208.39" r="12.97"/><path class="cls-2" d="M323.56,306.24s52.07-60.62,115.38-10.78c0,0,44.45,45.72,27.62,68,0,0-97.66,79.53-161.64,92.32,0-3.36-59.28-19.53-59.28-19.53s198-39.07,176.47-110.46C422.11,325.77,425.05,280,323.56,306.24Z" transform="translate(-3.41 -162.01)"/><path class="cls-4" d="M500.24,269.19s29,130.33-220.58,191c0,0-115.18,29.29-174.78-19.19C104.88,441,144,546,184.52,546c0,0,68.22,18.19,118.55,9.09,0,0,226.13-65.68,218.05-162.66C526.17,392.45,500.24,269.19,500.24,269.19Z" transform="translate(-3.41 -162.01)"/><rect class="cls-5" x="151.36" y="504.82" width="3.17" height="22.37" transform="translate(-218.85 -38.36) rotate(-26.69)"/><rect class="cls-5" x="159.35" y="503.11" width="3.17" height="29.24" transform="translate(-218.78 -34.59) rotate(-26.69)"/><rect class="cls-5" x="169.85" y="506.42" width="3.17" height="31.76" transform="translate(-219.71 -29.39) rotate(-26.69)"/><rect class="cls-5" x="181.49" y="508.78" width="3.17" height="31.76" transform="translate(-219.53 -23.9) rotate(-26.69)"/><rect class="cls-5" x="208.61" y="512.98" width="3.17" height="31.76" transform="translate(-218.53 -11.28) rotate(-26.69)"/><rect class="cls-5" x="223.34" y="512.98" width="3.17" height="31.76" transform="translate(-216.96 -4.66) rotate(-26.69)"/><rect class="cls-5" x="239.42" y="511.46" width="3.17" height="31.76" transform="translate(-214.56 2.4) rotate(-26.69)"/><rect class="cls-5" x="256.15" y="510.1" width="3.83" height="31.76" transform="translate(-212.13 9.91) rotate(-26.69)"/><rect class="cls-5" x="292.44" y="503.7" width="3.83" height="31.76" transform="translate(-205.4 25.53) rotate(-26.69)"/><rect class="cls-5" x="311.13" y="498.23" width="3.83" height="31.76" transform="translate(-200.95 33.34) rotate(-26.69)"/><rect class="cls-5" x="330.51" y="493.68" width="3.83" height="31.76" transform="translate(-196.84 41.56) rotate(-26.69)"/><rect class="cls-5" x="350.04" y="487.03" width="3.83" height="31.76" transform="translate(-191.77 49.62) rotate(-26.69)"/><rect class="cls-5" x="367.69" y="466.67" width="3.82" height="45.54" transform="translate(-162.69 16.88) rotate(-22.52)"/><rect class="cls-5" x="387.88" y="472.45" width="3.82" height="29.11" transform="translate(-160.21 24.43) rotate(-22.52)"/><rect class="cls-5" x="406.68" y="462.75" width="4.35" height="29.66" transform="translate(-135.85 -4.17) rotate(-18.86)"/><rect class="cls-5" x="440.03" y="441.87" width="4.35" height="29.66" transform="translate(-127.31 5.48) rotate(-18.86)"/><rect class="cls-5" x="423.36" y="451.1" width="4.35" height="29.66" transform="translate(-131.19 0.59) rotate(-18.86)"/><rect class="cls-5" x="453" y="416.63" width="4.35" height="46.42" transform="translate(-95.27 -40.59) rotate(-13.82)"/><rect class="cls-5" x="467.65" y="419.47" width="4.35" height="32.66" transform="translate(-93.88 -37.21) rotate(-13.82)"/><rect class="cls-5" x="478.76" y="409.2" width="4.35" height="32.66" transform="translate(-91.11 -34.85) rotate(-13.82)"/><rect class="cls-5" x="488.53" y="397.4" width="4.35" height="32.66" transform="translate(-88.01 -32.86) rotate(-13.82)"/><rect class="cls-5" x="496.45" y="388.49" width="4.35" height="32.66" transform="translate(-85.65 -31.23) rotate(-13.82)"/><rect class="cls-5" x="501.5" y="363.06" width="4.35" height="46" transform="translate(-81.02 -30.56) rotate(-13.82)"/><rect class="cls-5" x="509.15" y="367.37" width="4.35" height="31.66" transform="translate(-80.12 -28.82) rotate(-13.82)"/><rect class="cls-5" x="513.58" y="361.96" width="4.35" height="26" transform="translate(-78.02 -28) rotate(-13.82)"/><rect class="cls-5" x="271.61" y="494.94" width="3.83" height="47.71" transform="translate(-207.26 16.09) rotate(-26.69)"/><rect class="cls-5" x="190.32" y="497.36" width="3.17" height="45.72" transform="translate(-216.6 -20.41) rotate(-26.69)"/><path class="cls-4" d="M297.27,451.88s-119-15-178.25-115.11c1.34,1.35-18.41-52.09-14.14-70,0,0-28.07,106.87-22.23,134.26,1.35,1.35,19.91,41.23,22.23,43.56C104.88,444.54,205.22,494.7,297.27,451.88Z" transform="translate(-3.41 -162.01)"/><rect class="cls-5" x="127.11" y="434.36" width="45.68" height="6.52" transform="translate(-314.43 314.29) rotate(-75.88)"/><rect class="cls-5" x="107.84" y="422.84" width="31.93" height="6.52" transform="translate(-323.03 280.23) rotate(-75.88)"/><rect class="cls-5" x="96.76" y="413.23" width="31.93" height="3.75" transform="translate(-320.74 261.17) rotate(-75.88)"/><rect class="cls-5" x="89.57" y="404.02" width="31.93" height="3.75" transform="translate(-317.25 247.24) rotate(-75.88)"/><rect class="cls-5" x="78" y="385.57" width="44.4" height="2.73" transform="translate(-302.89 227.73) rotate(-75.88)"/><rect class="cls-5" x="80.32" y="382.73" width="27.95" height="2.73" transform="translate(-303.74 248.35) rotate(-80.01)"/><rect class="cls-6" x="75.1" y="374.25" width="27.95" height="2.73" transform="translate(-299.7 236.2) rotate(-80.01)"/><rect class="cls-5" x="118.84" y="432.15" width="31.93" height="6.52" transform="translate(-323.74 297.94) rotate(-75.88)"/><rect class="cls-5" x="172.64" y="453.53" width="16.66" height="6.52" transform="translate(-309.57 358.88) rotate(-75.88)"/><rect class="cls-5" x="196.05" y="459.61" width="8.73" height="6.52" transform="translate(-279.47 466.33) rotate(-85.74)"/><path class="cls-7" d="M265.4,444.54l31.37,11.22s-140.49,35.44-191.89-16C104.88,441,253,460.47,265.4,444.54Z" transform="translate(-3.41 -162.01)"/><polygon class="cls-7" points="237.58 303.29 275.58 298.3 300 291.93 304.2 290.73 261.99 282.53 237.58 303.29"/><path class="cls-7" d="M218.87,463s24.19,8.62,59.83-3.17c10.71-3.55-18.92,2.13-18.92,2.13" transform="translate(-3.41 -162.01)"/><path class="cls-7" d="M128.78,316.67s18.52-59.95,103.38-56.57l45.13-17.85S180.52,214,134.78,229.12C133.8,230.1,90.4,247.3,128.78,316.67Z" transform="translate(-3.41 -162.01)"/><polygon class="cls-7" points="285.34 116.95 289.38 91.02 254.03 103.99 285.34 116.95"/><path class="cls-7" d="M318.86,276.31S423.23,220.25,477,316.67c0,0,47.61-79-21.83-92,0,0-91,2.11-122.31,17.27Z" transform="translate(-3.41 -162.01)"/><path class="cls-5" d="M307.61,289.39s11.78-66.34,71.05-99.67l-23.57-15.83S302.9,203.18,294.82,286.7Z" transform="translate(-3.41 -162.01)"/><path class="cls-8" d="M297.27,228.79s-34.12-20.54-36.14-32c1-1,32.54,22.89,36.14,22.89,2.58,0,3.6-67-66.11-56.57C232.18,164.11,213.18,233.84,297.27,228.79Z" transform="translate(-3.41 -162.01)"/></svg>