<?xml version="1.0" encoding="utf-8"?>
<!-- Generator: Adobe Illustrator 24.0.0, SVG Export Plug-In . SVG Version: 6.00 Build 0)  -->
<svg version="1.1" id="Layer_1" xmlns="http://www.w3.org/2000/svg" xmlns:xlink="http://www.w3.org/1999/xlink" x="0px" y="0px"
	 viewBox="0 0 750.5 763.2" style="enable-background:new 0 0 750.5 763.2;" xml:space="preserve">
<style type="text/css">
	.st0{fill:none;}
	.st1{fill:#894625;}
	.st2{opacity:0.59;fill:#894625;enable-background:new    ;}
	.st3{fill:#D03544;}
	.st4{fill:#FFFFFF;}
	.st5{fill:#F0C52F;}
	.st6{fill:#BC860E;}
	.st7{fill:#429B09;}
</style>
<title>LOGOO</title>
<g>
	<rect x="67.5" y="552.6" class="st0" width="750.5" height="318.3"/>
	
		<rect x="144.4" y="328.5" transform="matrix(0.1735 -0.9848 0.9848 0.1735 -194.0166 428.6316)" class="st1" width="28" height="2.7"/>
	
		<rect x="139.2" y="320.1" transform="matrix(0.1735 -0.9848 0.9848 0.1735 -189.977 416.4846)" class="st2" width="28" height="2.7"/>
	<g>
		<path class="st3" d="M479.4,495.2c0,0-2,45.8-78.1,27.6c0,0-33.7,19.5-71.4,0c0,0-53.2,28.3-75.4-27.6c0,0-126-205.4-5.4-264.7
			c0,0,26.9-24.9,107.1,14.1c0,0,19.5,5.4,45.8-13.5c0,0,105.1-45.8,133.4,68.7C535.3,299.8,523.2,517.4,479.4,495.2z"/>
		
			<ellipse transform="matrix(0.3193 -0.9477 0.9477 0.3193 -76.9702 426.4623)" class="st4" cx="258.4" cy="266.8" rx="30.1" ry="28.2"/>
		<circle class="st4" cx="248.6" cy="316.2" r="13"/>
		<path class="st0" d="M387.6,252c0,0,52.1-60.6,115.4-10.8c0,0,44.4,45.7,27.6,68c0,0-97.7,79.5-161.6,92.3
			c0-3.4-59.3-19.5-59.3-19.5s198-39.1,176.5-110.5C486.2,271.5,489.1,225.8,387.6,252z"/>
		<path class="st5" d="M564.3,215c0,0,29,130.3-220.6,191c0,0-115.2,29.3-174.8-19.2c0,0,39.1,105,79.6,105c0,0,68.2,18.2,118.6,9.1
			c0,0,226.1-65.7,218-162.7C590.2,338.2,564.3,215,564.3,215z"/>
		
			<rect x="215.5" y="450.6" transform="matrix(0.8934 -0.4492 0.4492 0.8934 -184.2786 146.6856)" class="st1" width="3.2" height="22.4"/>
		
			<rect x="223.4" y="448.9" transform="matrix(0.8934 -0.4492 0.4492 0.8934 -184.2016 150.455)" class="st1" width="3.2" height="29.2"/>
		
			<rect x="233.9" y="452.2" transform="matrix(0.8934 -0.4492 0.4492 0.8934 -185.1336 155.6596)" class="st1" width="3.2" height="31.8"/>
		
			<rect x="245.6" y="454.5" transform="matrix(0.8934 -0.4492 0.4492 0.8934 -184.9581 161.1403)" class="st1" width="3.2" height="31.8"/>
		
			<rect x="272.7" y="458.7" transform="matrix(0.8934 -0.4492 0.4492 0.8934 -183.9513 173.7667)" class="st1" width="3.2" height="31.8"/>
		
			<rect x="287.4" y="458.7" transform="matrix(0.8934 -0.4492 0.4492 0.8934 -182.3835 180.3835)" class="st1" width="3.2" height="31.8"/>
		
			<rect x="303.5" y="457.2" transform="matrix(0.8934 -0.4492 0.4492 0.8934 -179.9867 187.4458)" class="st1" width="3.2" height="31.8"/>
		
			<rect x="320.2" y="455.8" transform="matrix(0.8934 -0.4492 0.4492 0.8934 -177.5545 194.9634)" class="st1" width="3.8" height="31.8"/>
		
			<rect x="356.5" y="449.4" transform="matrix(0.8934 -0.4492 0.4492 0.8934 -170.8151 210.5768)" class="st1" width="3.8" height="31.8"/>
		
			<rect x="375.2" y="444" transform="matrix(0.8934 -0.4492 0.4492 0.8934 -166.3657 218.3893)" class="st1" width="3.8" height="31.8"/>
		
			<rect x="394.6" y="439.4" transform="matrix(0.8934 -0.4492 0.4492 0.8934 -162.2569 226.6099)" class="st1" width="3.8" height="31.8"/>
		
			<rect x="414.1" y="432.8" transform="matrix(0.8934 -0.4492 0.4492 0.8934 -157.1872 234.6741)" class="st1" width="3.8" height="31.8"/>
		
			<rect x="431.7" y="412.5" transform="matrix(0.9237 -0.383 0.383 0.9237 -133.6272 199.2798)" class="st1" width="3.8" height="45.5"/>
		
			<rect x="451.9" y="418.2" transform="matrix(0.9237 -0.383 0.383 0.9237 -131.1555 206.8303)" class="st1" width="3.8" height="29.1"/>
		
			<rect x="470.7" y="408.6" transform="matrix(0.9463 -0.3233 0.3233 0.9463 -111.4752 175.6008)" class="st1" width="4.4" height="29.7"/>
		
			<rect x="504.1" y="387.7" transform="matrix(0.9463 -0.3233 0.3233 0.9463 -102.932 185.2599)" class="st1" width="4.4" height="29.7"/>
		
			<rect x="487.4" y="396.9" transform="matrix(0.9463 -0.3233 0.3233 0.9463 -106.8117 180.3665)" class="st1" width="4.4" height="29.7"/>
		
			<rect x="517.1" y="362.4" transform="matrix(0.9711 -0.2389 0.2389 0.9711 -77.0717 135.1996)" class="st1" width="4.4" height="46.4"/>
		
			<rect x="531.7" y="365.2" transform="matrix(0.9711 -0.2389 0.2389 0.9711 -75.6819 138.5822)" class="st1" width="4.4" height="32.7"/>
		
			<rect x="542.8" y="354.9" transform="matrix(0.9711 -0.2389 0.2389 0.9711 -72.908 140.9377)" class="st1" width="4.4" height="32.7"/>
		
			<rect x="552.6" y="343.1" transform="matrix(0.9711 -0.2389 0.2389 0.9711 -69.806 142.9295)" class="st1" width="4.4" height="32.7"/>
		
			<rect x="560.5" y="334.2" transform="matrix(0.9711 -0.2389 0.2389 0.9711 -67.4474 144.5639)" class="st1" width="4.4" height="32.7"/>
		
			<rect x="565.6" y="308.8" transform="matrix(0.9711 -0.2389 0.2389 0.9711 -62.8215 145.2279)" class="st1" width="4.4" height="46"/>
		
			<rect x="573.2" y="313.1" transform="matrix(0.9711 -0.2389 0.2389 0.9711 -61.9159 146.9713)" class="st1" width="4.4" height="31.7"/>
		
			<rect x="577.7" y="307.7" transform="matrix(0.9711 -0.2389 0.2389 0.9711 -59.8193 147.7917)" class="st1" width="4.3" height="26"/>
		
			<rect x="335.7" y="440.7" transform="matrix(0.8934 -0.4492 0.4492 0.8934 -172.6811 201.1401)" class="st1" width="3.8" height="47.7"/>
		
			<rect x="254.4" y="443.1" transform="matrix(0.8934 -0.4492 0.4492 0.8934 -182.0221 164.6307)" class="st1" width="3.2" height="45.7"/>
		<path class="st5" d="M361.3,397.7c0,0-119-15-178.3-115.1c1.3,1.4-18.4-52.1-14.1-70c0,0-28.1,106.9-22.2,134.3
			c1.4,1.4,19.9,41.2,22.2,43.6C168.9,390.3,269.3,440.5,361.3,397.7z"/>
		
			<rect x="191.2" y="380.2" transform="matrix(0.244 -0.9698 0.9698 0.244 -210.0271 497.4338)" class="st1" width="45.7" height="6.5"/>
		
			<rect x="171.9" y="368.6" transform="matrix(0.244 -0.9698 0.9698 0.244 -218.6305 463.3677)" class="st1" width="31.9" height="6.5"/>
		
			<rect x="160.8" y="359" transform="matrix(0.244 -0.9698 0.9698 0.244 -216.3395 444.3123)" class="st1" width="31.9" height="3.8"/>
		
			<rect x="153.6" y="349.8" transform="matrix(0.244 -0.9698 0.9698 0.244 -212.8539 430.3752)" class="st1" width="31.9" height="3.8"/>
		
			<rect x="142.1" y="331.4" transform="matrix(0.244 -0.9698 0.9698 0.244 -198.4939 410.8717)" class="st1" width="44.4" height="2.7"/>
		
			<rect x="182.9" y="378" transform="matrix(0.244 -0.9698 0.9698 0.244 -219.3445 481.079)" class="st1" width="31.9" height="6.5"/>
		
			<rect x="236.7" y="399.3" transform="matrix(0.244 -0.9698 0.9698 0.244 -205.1801 542.0187)" class="st1" width="16.7" height="6.5"/>
		
			<rect x="260.1" y="405.4" transform="matrix(7.428258e-02 -0.9972 0.9972 7.428258e-02 -162.681 642.0327)" class="st1" width="8.7" height="6.5"/>
		<path class="st6" d="M329.5,390.3l31.4,11.2c0,0-140.5,35.4-191.9-16C168.9,386.8,317.1,406.2,329.5,390.3z"/>
		<polygon class="st6" points="305,411.1 343,406.1 367.5,399.7 371.7,398.5 329.5,390.3 		"/>
		<path class="st6" d="M282.9,408.8c0,0,24.2,8.6,59.8-3.2c10.7-3.5-18.9,2.1-18.9,2.1"/>
		<path class="st6" d="M192.8,262.4c0,0,18.5-60,103.4-56.6l45.1-17.9c0,0-96.8-28.3-142.5-13.1
			C197.9,175.9,154.5,193.1,192.8,262.4z"/>
		<polygon class="st6" points="352.8,224.7 356.8,198.8 321.5,211.8 		"/>
		<path class="st6" d="M382.9,222.1c0,0,104.4-56.1,158.1,40.4c0,0,47.6-79-21.8-92c0,0-91,2.1-122.3,17.3L382.9,222.1z"/>
		<path class="st1" d="M371.7,235.2c0,0,11.8-66.3,71-99.7l-23.6-15.8c0,0-52.2,29.3-60.3,112.8L371.7,235.2z"/>
		<path class="st7" d="M361.3,174.6c0,0-34.1-20.5-36.1-32c1-1,32.5,22.9,36.1,22.9c2.6,0,3.6-67-66.1-56.6
			C296.2,109.9,277.2,179.6,361.3,174.6z"/>
	</g>
</g>
</svg>
